<?xml version="1.0" encoding="UTF-8" standalone="no"?>
<!-- Creator: CorelDRAW -->

<svg
   xmlns:dc="http://purl.org/dc/elements/1.1/"
   xmlns:cc="http://creativecommons.org/ns#"
   xmlns:rdf="http://www.w3.org/1999/02/22-rdf-syntax-ns#"
   xmlns:svg="http://www.w3.org/2000/svg"
   xmlns="http://www.w3.org/2000/svg"
   xmlns:sodipodi="http://sodipodi.sourceforge.net/DTD/sodipodi-0.dtd"
   xmlns:inkscape="http://www.inkscape.org/namespaces/inkscape"
   xml:space="preserve"
   width="285.58044"
   height="78.768723"
   style="clip-rule:evenodd;fill-rule:evenodd;image-rendering:optimizeQuality;shape-rendering:geometricPrecision;text-rendering:geometricPrecision"
   viewBox="0 0 285.58044 78.768723"
   version="1.0"
   id="svg27"
   sodipodi:docname="logo.svg"
   inkscape:version="0.92.2 (unknown)"><metadata
     id="metadata31"><rdf:RDF><cc:Work
         rdf:about=""><dc:format>image/svg+xml</dc:format><dc:type
           rdf:resource="http://purl.org/dc/dcmitype/StillImage" /><dc:title></dc:title></cc:Work></rdf:RDF></metadata><sodipodi:namedview
     pagecolor="#ffffff"
     bordercolor="#666666"
     borderopacity="1"
     objecttolerance="10"
     gridtolerance="10"
     guidetolerance="10"
     inkscape:pageopacity="0"
     inkscape:pageshadow="2"
     inkscape:window-width="1920"
     inkscape:window-height="1052"
     id="namedview29"
     showgrid="false"
     fit-margin-top="0"
     fit-margin-left="0"
     fit-margin-right="0"
     fit-margin-bottom="0"
     inkscape:zoom="0.78666667"
     inkscape:cx="142.85315"
     inkscape:cy="37.902838"
     inkscape:window-x="0"
     inkscape:window-y="0"
     inkscape:window-maximized="1"
     inkscape:current-layer="svg27" /><defs
     id="defs4"><style
       type="text/css"
       id="style2"><![CDATA[
    .fil0 {fill:#047000}
    .fil1 {fill:#EEB31F}
    .fil2 {fill:#047000;fill-rule:nonzero}
   ]]></style></defs><g
     id="Слой_x0020_1"
     transform="translate(-7.1468484,-109.13411)"><metadata
       id="CorelCorpID_0Corel-Layer" /><path
       class="fil0"
       d="m 231.889,169.71 c -0.22205,-0.59173 -0.29528,-1.99606 -0.14764,-3.17835 0.14764,-1.62638 1.40433,-2.80866 5.76496,-5.83937 5.98701,-4.13858 7.68661,-6.06024 6.94724,-7.98189 -0.36968,-0.96142 -1.55197,-1.18228 -5.9126,-1.18228 h -5.46969 V 149.31 147.09307 h 7.68661 c 8.42598,0 8.87008,0.22205 9.60827,4.43504 0.81378,4.65591 -0.29527,6.7252 -6.13346,10.9382 l -5.39646,3.84331 h 5.24764 5.24764 v 2.21693 2.21811 h -8.49921 c -6.72638,0 -8.64803,-0.22205 -8.94331,-1.03465 z"
       id="path7"
       inkscape:connector-curvature="0"
       style="fill:#047000" /><path
       class="fil0"
       d="m 264.853,168.896 c 0,-1.84724 -0.0744,-1.84724 -5.76496,-1.84724 -6.42992,0 -7.53898,-0.59173 -7.53898,-4.06535 0,-1.77402 1.3311,-3.62126 6.35669,-9.01654 5.83819,-6.35669 6.57756,-6.87402 9.16417,-6.87402 3.47362,0 3.69567,0.51732 3.69567,8.94331 0,6.06024 0.0744,6.57756 1.47874,6.57756 1.18228,0 1.47756,0.51732 1.47756,2.21811 0,1.69961 -0.29528,2.21693 -1.47756,2.21693 -1.10906,0 -1.47874,0.51732 -1.47874,1.84843 0,1.69961 -0.29528,1.84724 -2.9563,1.84724 -2.66102,0 -2.9563,-0.14764 -2.9563,-1.84724 v -0.001 z m 0,-10.4953 v -4.21181 l -2.29134,2.21693 c -1.25669,1.18228 -2.9563,3.03071 -3.7689,4.21299 l -1.40433,1.99488 h 3.69567 3.7689 v -4.21181 -0.001 z"
       id="path9"
       inkscape:connector-curvature="0"
       style="fill:#047000" /><path
       class="fil1"
       d="m 223.881,187.492 c -0.31181,-0.23386 -0.25158,-9.53031 -0.25158,-20.5465 0,-11.015 -0.23385,-20.6079 -0.54685,-20.8417 -0.23385,-0.31181 -2.32559,1.23307 -4.20118,2.95157 -3.90591,3.59409 -5.9374,3.75 -6.32835,0.39094 -0.23385,-2.0315 1.64055,-4.2189 18.75,-21.3283 16.4067,-16.4055 19.2969,-18.9839 21.3283,-18.9839 2.0315,0 4.92165,2.57717 21.32831,18.9839 17.1094,17.1094 18.9839,19.2969 18.75,21.3283 -0.54685,4.8437 -2.42244,3.51496 -21.6413,-15.6248 l -18.43701,-18.4382 -11.95279,11.9528 -12.17131,12.5445 -0.13818,22.0913 0.23385,21.8752 24.0283,-0.88582 h 24.0283 l 0.19016,-26.5264 h 2.34449 2.34331 v 13.2449 l -0.59055,17.3776 -28.0028,0.82559 c -15.7039,0.0779 -28.7504,-0.078 -29.0634,-0.39095 v 0 z"
       id="path11"
       inkscape:connector-curvature="0"
       style="fill:#eeb31f" /><rect
       class="fil1"
       x="223.095"
       y="137.735"
       width="4.6668301"
       height="50.047501"
       rx="3.1724401"
       ry="3.1724401"
       id="rect13"
       style="fill:#eeb31f" /><rect
       class="fil1"
       x="276.755"
       y="151.774"
       width="4.7642698"
       height="36.0471"
       rx="3.19961"
       ry="3.19961"
       id="rect15"
       style="fill:#eeb31f" /><rect
       class="fil1"
       transform="matrix(-6.27547e-4,0.194433,-0.321686,-2.85917e-4,279.08,182.944)"
       width="25.1043"
       height="166.075"
       id="rect17"
       x="0"
       y="0"
       style="fill:#eeb31f" /><g
       id="_298153792"><path
         id="_231766824"
         class="fil2"
         d="m 38.9232,148.749 c 0.0437,-0.12165 0.109843,-0.25748 0.184252,-0.4063 0.0815,-0.15709 0.170079,-0.28465 0.265748,-0.39921 0.09803,-0.11457 0.201969,-0.17244 0.303543,-0.17953 0.0685,-0.006 0.134646,0.0154 0.223228,0.0508 0.08268,0.0425 0.148819,0.12165 0.214961,0.24921 0.05905,0.13583 0.09685,0.32835 0.09685,0.59882 l -0.178346,23.3173 h 5.86654 v -26.3539 c -0.0071,-0.91299 -0.229134,-1.65472 -0.657874,-2.23937 -0.431102,-0.57756 -1.02283,-1.0063 -1.77874,-1.28386 -0.748819,-0.27874 -1.61457,-0.41457 -2.58543,-0.41457 -0.562205,-0.006 -1.10315,0.0366 -1.62283,0.12992 -0.510236,0.098 -0.999213,0.27756 -1.45748,0.54095 -0.46063,0.27165 -0.890551,0.65551 -1.28976,1.16929 -0.392126,0.5126 -0.762992,1.18346 -1.09606,2.01142 l -8.04331,19.9795 c -0.134646,0.32834 -0.275197,0.59173 -0.421654,0.79842 -0.148819,0.19961 -0.290551,0.30709 -0.422835,0.31418 -0.133465,-0.007 -0.275197,-0.11457 -0.421654,-0.31418 -0.148819,-0.20669 -0.28937,-0.47008 -0.422835,-0.79842 l -8.04449,-19.9795 c -0.333071,-0.82795 -0.695669,-1.49882 -1.09488,-2.01142 -0.400394,-0.5126 -0.830315,-0.89764 -1.28858,-1.16929 -0.46063,-0.26457 -0.941339,-0.44291 -1.45984,-0.54095 -0.510236,-0.0933 -1.05118,-0.13582 -1.62283,-0.12992 -0.184252,-0.006 -0.473622,0.007 -0.865748,0.0366 -0.38622,0.0283 -0.816142,0.1063 -1.28268,0.22795 -0.4736216,0.12165 -0.9248026,0.32716 -1.3629896,0.60591 -0.435827,0.27755 -0.79252,0.66378 -1.07362,1.1622 -0.281102,0.49252 -0.429921,1.12677 -0.437008,1.90394 v 26.3551 h 5.8665396 l -0.134646,-23.3173 c 0,-0.0508 0,-0.15 0.01654,-0.29174 0.01417,-0.14291 0.05787,-0.27874 0.132283,-0.40748 0.06732,-0.12047 0.178346,-0.19252 0.341339,-0.1996 0.08858,0.007 0.185433,0.065 0.282283,0.17953 0.102756,0.11456 0.19252,0.24212 0.281102,0.39921 0.0815,0.14882 0.147638,0.28464 0.19252,0.4063 l 7.95472,19.9795 c 0.362598,0.93425 0.733465,1.66181 1.11024,2.18976 0.38622,0.52086 0.838583,0.89055 1.36299,1.09724 0.526772,0.21378 1.17874,0.31299 1.97126,0.30708 0.636614,0 1.18465,-0.0579 1.62992,-0.18543 0.451181,-0.12165 0.837402,-0.32126 1.16339,-0.59882 0.317717,-0.27874 0.607087,-0.6496 0.865748,-1.1126 0.266929,-0.4559 0.525591,-1.02638 0.785433,-1.69724 l 7.95591,-19.9795 h -0.0012 z"
         inkscape:connector-curvature="0"
         style="fill:#047000;fill-rule:nonzero" /><path
         id="_2317668241"
         class="fil2"
         d="m 62.2547,149.048 c -0.703937,-0.007 -1.47402,0.007 -2.30433,0.0496 -0.827953,0.0366 -1.67244,0.12874 -2.53228,0.27874 -0.859843,0.15 -1.69724,0.39212 -2.49567,0.71929 -0.800787,0.32834 -1.52598,0.77716 -2.17795,1.34882 -0.674409,0.62008 -1.20827,1.3252 -1.61575,2.11654 -0.40748,0.79252 -0.711024,1.61929 -0.91063,2.47441 -0.206693,0.8563 -0.341339,1.69016 -0.40748,2.50394 -0.06732,0.80551 -0.09685,1.53898 -0.08858,2.18858 -0.0083,0.58464 0.02126,1.26969 0.08268,2.03976 0.05787,0.77716 0.184252,1.58976 0.375591,2.43189 0.201969,0.84094 0.504331,1.66063 0.912993,2.45906 0.406298,0.7996 0.954331,1.51181 1.651179,2.13898 0.651969,0.56338 1.37717,1.00512 2.177951,1.34055 0.798425,0.32834 1.635829,0.57047 2.495669,0.72756 0.859843,0.15708 1.70315,0.26338 2.53228,0.3059 0.830315,0.0508 1.60039,0.0721 2.30433,0.065 0.688583,0.007 1.44449,-0.0142 2.27362,-0.065 0.830315,-0.0425 1.68189,-0.14882 2.548821,-0.3059 0.874016,-0.15709 1.71142,-0.39922 2.518109,-0.72756 0.806693,-0.33544 1.525981,-0.77717 2.169691,-1.34055 0.585826,-0.51969 1.10433,-1.20472 1.555509,-2.0315 0.452362,-0.83386 0.809055,-1.84724 1.06772,-3.0378 0.258661,-1.18346 0.392126,-2.58189 0.400394,-4.17165 0.0059,-0.60709 -0.02244,-1.30512 -0.08858,-2.08937 -0.06732,-0.79134 -0.200787,-1.60394 -0.40748,-2.45197 -0.200787,-0.84922 -0.504331,-1.66181 -0.91063,-2.45315 -0.401575,-0.79252 -0.941339,-1.49764 -1.61693,-2.11772 -0.651969,-0.57047 -1.37598,-1.01929 -2.17677,-1.34764 -0.799606,-0.32835 -1.62992,-0.57047 -2.49685,-0.72047 -0.858661,-0.15 -1.70315,-0.24213 -2.53228,-0.27756 -0.829134,-0.0425 -1.59213,-0.0579 -2.30315,-0.0508 h -0.0012 z m -7.1563,11.6374 c -0.0059,-0.37205 0,-0.8126 0.02362,-1.32047 0.02126,-0.5126 0.07323,-1.04764 0.161811,-1.61102 0.08858,-0.56339 0.229134,-1.11142 0.437008,-1.63937 0.200787,-0.53504 0.48189,-1.00512 0.844488,-1.41969 0.50315,-0.53386 1.08071,-0.93425 1.74921,-1.19055 0.666142,-0.2563 1.34764,-0.42756 2.04331,-0.49843 0.688583,-0.0791 1.31929,-0.11456 1.89685,-0.10748 0.629528,-0.007 1.2815,0.0283 1.95472,0.10748 0.674409,0.0709 1.33346,0.24213 1.97008,0.49843 0.637795,0.2563 1.20827,0.65669 1.7185,1.19055 0.540945,0.59173 0.91063,1.24843 1.12559,1.96063 0.207874,0.71339 0.334252,1.41969 0.36378,2.1248 0.02835,0.69921 0.03661,1.33346 0.02244,1.90512 0.0059,0.6626 -0.0083,1.33228 -0.06024,2.01024 -0.0437,0.68386 -0.177165,1.34764 -0.400394,1.99724 -0.220866,0.64843 -0.584646,1.24724 -1.09606,1.81063 -0.517323,0.54921 -1.0878,0.95551 -1.71024,1.22598 -0.614173,0.27874 -1.25197,0.45709 -1.91102,0.54331 -0.659055,0.085 -1.31929,0.12047 -1.97717,0.11338 -0.630709,0.007 -1.28268,-0.0283 -1.95591,-0.11338 -0.674409,-0.0862 -1.33465,-0.26457 -1.97126,-0.54331 -0.636614,-0.27047 -1.20709,-0.67677 -1.71732,-1.22598 -0.48189,-0.54921 -0.830315,-1.15512 -1.04528,-1.81063 -0.214961,-0.66378 -0.347244,-1.33346 -0.400394,-2.02559 -0.05197,-0.68386 -0.07323,-1.34764 -0.06614,-1.98189 v 0 z"
         inkscape:connector-curvature="0"
         style="fill:#047000;fill-rule:nonzero" /><path
         id="_23176682412"
         class="fil2"
         d="m 100.785,171.979 v -19.4657 c -0.0142,-0.83386 -0.15472,-1.49055 -0.43583,-1.9689 -0.27401,-0.47717 -0.615351,-0.81968 -1.007477,-1.03346 -0.392126,-0.21378 -0.778346,-0.34252 -1.14094,-0.39921 -0.370866,-0.0496 -0.644882,-0.0709 -0.837402,-0.0638 -0.355512,-0.007 -0.725197,0.0354 -1.09606,0.11456 -0.369685,0.078 -0.740551,0.23386 -1.09606,0.45591 -0.354331,0.22087 -0.695669,0.54921 -1.00748,0.96969 l -10.4882,14.8453 c -0.08858,0.13582 -0.178346,0.27165 -0.281102,0.39921 -0.09685,0.12165 -0.207874,0.19252 -0.341339,0.1996 -0.170079,0 -0.274016,-0.0496 -0.31063,-0.15708 -0.03661,-0.0992 -0.05197,-0.24922 -0.0437,-0.44173 l 0.220866,-16.1291 h -5.19803 v 19.7232 c -0.0083,0.30708 0.02835,0.64252 0.102756,1.0063 0.07323,0.36259 0.229134,0.7122 0.459449,1.04764 0.229134,0.33543 0.569291,0.6059 1.02992,0.81968 0.458268,0.21378 1.06535,0.32835 1.82835,0.33543 0.584646,0 1.08189,-0.065 1.4811,-0.1996 0.392126,-0.13583 0.740551,-0.33544 1.03583,-0.59882 0.297638,-0.26339 0.587008,-0.59882 0.861024,-0.99803 l 10.3547,-14.589 c 0.178346,-0.24922 0.311811,-0.41339 0.414567,-0.49252 0.09685,-0.0791 0.162992,-0.11457 0.207874,-0.10748 0.170079,0 0.259843,0.0567 0.265748,0.17126 0.01535,0.10748 0.01535,0.25039 0,0.42874 l -0.177165,16.1291 h 5.199211 v -0.001 z M 89.32,145.1963 c -0.518504,0.008 -1.04528,-0.0567 -1.58622,-0.19134 -0.532677,-0.14291 -1.02874,-0.42165 -1.4811,-0.83504 -0.162992,-0.16299 -0.317717,-0.3496 -0.466535,-0.5622 -0.148819,-0.21496 -0.274016,-0.43583 -0.385039,-0.6567 -0.111024,-0.22795 -0.199606,-0.43464 -0.259843,-0.62007 h -4.04291 c 0.161811,0.54921 0.377953,1.09724 0.636614,1.64054 0.259843,0.54804 0.54685,1.05472 0.874016,1.51772 0.324803,0.47126 0.666142,0.8563 1.02165,1.16339 0.585827,0.49134 1.21535,0.85394 1.88858,1.09724 0.674409,0.24213 1.34055,0.39922 2.00079,0.47008 0.657874,0.0709 1.25906,0.10748 1.8,0.1004 0.540945,0.007 1.13976,-0.0295 1.8,-0.1004 0.659055,-0.0709 1.32638,-0.22795 1.99961,-0.47008 0.674409,-0.2433 1.30276,-0.60708 1.88858,-1.09724 0.355512,-0.30708 0.695669,-0.69212 1.02165,-1.16339 0.325984,-0.46299 0.615354,-0.96968 0.874016,-1.51772 0.259843,-0.5433 0.473622,-1.09134 0.636614,-1.64054 h -4.04291 c -0.06024,0.18543 -0.148819,0.39212 -0.259843,0.62007 -0.112205,0.22087 -0.237402,0.44174 -0.385039,0.6567 -0.148819,0.2126 -0.304724,0.39921 -0.466535,0.5622 -0.452362,0.41457 -0.949606,0.69213 -1.4811,0.83504 -0.540945,0.13465 -1.06772,0.19961 -1.58504,0.19134 z"
         inkscape:connector-curvature="0"
         style="fill:#047000;fill-rule:nonzero" /><path
         id="_231766824123"
         class="fil2"
         d="m 115.096,167.487 h -2.62205 v 4.49291 h 36.1311 V 167.487 h -2.62323 l -10.4433,-22.6323 c -0.31653,-0.71339 -0.68858,-1.30512 -1.11024,-1.7752 -0.42284,-0.46417 -0.94724,-0.8126 -1.57087,-1.04882 -0.62126,-0.22795 -1.38543,-0.34252 -2.29488,-0.34252 -1.03819,0.007 -1.88268,0.15827 -2.51929,0.44291 -0.63661,0.28465 -1.13976,0.6626 -1.51063,1.14094 -0.37795,0.47717 -0.69685,1.00512 -0.94843,1.58268 l -10.4882,22.6323 z m 14.7094,-19.4232 c 0.0295,-0.0933 0.0827,-0.21378 0.15709,-0.35669 0.072,-0.14882 0.16181,-0.27756 0.26574,-0.39922 0.10394,-0.11338 0.21378,-0.17834 0.33308,-0.18543 0.11811,0.007 0.22086,0.0721 0.31181,0.18543 0.0874,0.12166 0.16889,0.2504 0.23622,0.39922 0.0673,0.14291 0.11811,0.26456 0.16299,0.35669 l 8.71063,19.4232 h -18.8882 l 8.71063,-19.4232 v 0 z"
         inkscape:connector-curvature="0"
         style="fill:#047000;fill-rule:nonzero" /><path
         id="_2317668241234"
         class="fil2"
         d="m 161.849,149.048 c -0.70394,-0.007 -1.47402,0.007 -2.30433,0.0496 -0.82795,0.0366 -1.67244,0.12874 -2.53228,0.27874 -0.85984,0.15 -1.69724,0.39212 -2.49567,0.71929 -0.80079,0.32834 -1.52598,0.77716 -2.17795,1.34882 -0.67441,0.62008 -1.20827,1.3252 -1.61575,2.11654 -0.40748,0.79252 -0.71102,1.61929 -0.91063,2.47441 -0.20669,0.8563 -0.34134,1.69016 -0.40748,2.50394 -0.0673,0.80551 -0.0968,1.53898 -0.0886,2.18858 -0.008,0.58464 0.0213,1.26969 0.0827,2.03976 0.0579,0.77716 0.18426,1.58976 0.3756,2.43189 0.20078,0.84094 0.50433,1.66063 0.91299,2.45906 0.4063,0.7996 0.95433,1.51181 1.65118,2.13898 0.65197,0.56338 1.37717,1.00512 2.17795,1.34055 0.79842,0.32834 1.63583,0.57047 2.49567,0.72756 0.85984,0.15708 1.70315,0.26338 2.53228,0.3059 0.83031,0.0508 1.60039,0.0721 2.30433,0.065 0.68858,0.007 1.44449,-0.0142 2.27362,-0.065 0.83031,-0.0425 1.68189,-0.14882 2.54882,-0.3059 0.87401,-0.15709 1.71142,-0.39922 2.51811,-0.72756 0.80669,-0.33544 1.52598,-0.77717 2.16969,-1.34055 0.58582,-0.51969 1.10433,-1.20472 1.55551,-2.0315 0.45236,-0.83386 0.80905,-1.84724 1.06772,-3.0378 0.25866,-1.18346 0.39212,-2.58189 0.40039,-4.17165 0.006,-0.60709 -0.0224,-1.30512 -0.0886,-2.08937 -0.0673,-0.79134 -0.20079,-1.60394 -0.40866,-2.45197 -0.19961,-0.84922 -0.50315,-1.66181 -0.91063,-2.45315 -0.4004,-0.79252 -0.94016,-1.49764 -1.61575,-2.11772 -0.65197,-0.57047 -1.37598,-1.01929 -2.17677,-1.34764 -0.79961,-0.32835 -1.62992,-0.57047 -2.49685,-0.72047 -0.85866,-0.15 -1.70315,-0.24213 -2.53228,-0.27756 -0.82914,-0.0425 -1.59213,-0.0579 -2.30433,-0.0508 v 0 z m -7.15512,11.6374 c -0.007,-0.37205 0,-0.8126 0.0224,-1.32047 0.0213,-0.5126 0.0744,-1.04764 0.16299,-1.61102 0.0874,-0.56339 0.22914,-1.11142 0.43583,-1.63937 0.20079,-0.53504 0.48189,-1.00512 0.84567,-1.41969 0.50315,-0.53386 1.08071,-0.93425 1.74803,-1.19055 0.66614,-0.2563 1.34764,-0.42756 2.04331,-0.49843 0.68976,-0.0791 1.31929,-0.11456 1.89685,-0.10748 0.62953,-0.007 1.2815,0.0283 1.95591,0.10748 0.67323,0.0709 1.33228,0.24213 1.97008,0.49843 0.63661,0.2563 1.20709,0.65669 1.71732,1.19055 0.54094,0.59173 0.91063,1.24843 1.12677,1.96063 0.20669,0.71339 0.33307,1.41969 0.3626,2.1248 0.0283,0.69921 0.0366,1.33346 0.0224,1.90512 0.006,0.6626 -0.008,1.33228 -0.0602,2.01024 -0.0437,0.68386 -0.17716,1.34764 -0.39921,1.99724 -0.22205,0.64843 -0.58583,1.24724 -1.09724,1.81063 -0.51732,0.54921 -1.0878,0.95551 -1.71024,1.22598 -0.61417,0.27874 -1.25197,0.45709 -1.91102,0.54331 -0.65906,0.085 -1.31811,0.12047 -1.97717,0.11338 -0.62953,0.007 -1.2815,-0.0283 -1.95591,-0.11338 -0.67441,-0.0862 -1.33346,-0.26457 -1.97126,-0.54331 -0.63543,-0.27047 -1.20591,-0.67677 -1.71732,-1.22598 -0.48189,-0.54921 -0.83032,-1.15512 -1.04409,-1.81063 -0.21614,-0.66378 -0.34843,-1.33346 -0.40158,-2.02559 -0.0508,-0.68386 -0.0732,-1.34764 -0.0661,-1.98189 h 0.001 z"
         inkscape:connector-curvature="0"
         style="fill:#047000;fill-rule:nonzero" /><path
         id="_23176682412345"
         class="fil2"
         d="m 201.001,155.636 c 0.0531,-0.10039 0.11102,-0.20551 0.18661,-0.32008 0.0732,-0.12165 0.14882,-0.18543 0.21496,-0.19252 0.052,0 0.10276,0.0425 0.17008,0.11457 0.0591,0.078 0.0886,0.18425 0.0968,0.31299 l -0.22322,16.4291 h 5.20039 v -19.6807 c -0.007,-0.74173 -0.19961,-1.35472 -0.57048,-1.83189 -0.37795,-0.47835 -0.86692,-0.83504 -1.47402,-1.07008 -0.61417,-0.23504 -1.27323,-0.34961 -1.99961,-0.34961 -0.65315,-0.007 -1.23071,0.0709 -1.73976,0.22087 -0.50551,0.15709 -0.9496,0.41457 -1.31929,0.77008 -0.37795,0.35669 -0.68858,0.84213 -0.94133,1.44803 l -5.95394,14.4177 c -0.0295,0.0791 -0.0909,0.18543 -0.16418,0.32835 -0.0732,0.14291 -0.16299,0.27165 -0.25157,0.38503 -0.0898,0.11457 -0.17835,0.17835 -0.25276,0.18544 -0.0744,-0.007 -0.16181,-0.0709 -0.25039,-0.18544 -0.091,-0.11456 -0.17835,-0.24212 -0.25276,-0.38503 -0.0744,-0.14292 -0.13346,-0.24922 -0.16299,-0.32835 l -5.95512,-14.4177 c -0.25158,-0.60591 -0.56339,-1.09134 -0.94134,-1.44803 -0.36968,-0.35551 -0.81378,-0.61299 -1.31811,-0.77008 -0.51024,-0.15 -1.08898,-0.22795 -1.74094,-0.22087 -0.71693,0 -1.38543,0.11457 -1.99961,0.34961 -0.60709,0.23504 -1.09606,0.59173 -1.46575,1.07008 -0.37795,0.47717 -0.57047,1.09016 -0.57756,1.83189 v 19.6807 h 5.19921 l -0.22205,-16.4291 c -0.008,-0.0709 0.007,-0.15 0.0295,-0.24331 0.0295,-0.085 0.11103,-0.13464 0.23622,-0.14173 0.0886,0.0142 0.16299,0.072 0.22914,0.18543 0.0614,0.11457 0.10511,0.2067 0.12755,0.28465 l 6.0437,14.7177 c 0.1193,0.30709 0.28937,0.59882 0.5256,0.88465 0.2374,0.28464 0.55629,0.52795 0.96259,0.71338 0.40748,0.18544 0.9189,0.27756 1.53307,0.28465 0.62363,-0.007 1.13386,-0.0992 1.53425,-0.28465 0.4063,-0.18543 0.7252,-0.42874 0.9626,-0.71338 0.2374,-0.28583 0.41457,-0.57756 0.52559,-0.88465 l 5.99882,-14.7177 v 0 z"
         inkscape:connector-curvature="0"
         style="fill:#047000;fill-rule:nonzero" /></g></g></svg>